<svg id="svg" version="1.1" xmlns="http://www.w3.org/2000/svg" xmlns:xlink="http://www.w3.org/1999/xlink" width="400" height="400" viewBox="0, 0, 400,400"><g id="svgg"><path id="path0" d="M197.200 50.446 C 195.231 51.497,194.889 52.117,194.608 55.139 C 194.472 56.602,194.192 58.970,193.986 60.400 C 193.780 61.830,193.333 66.420,192.991 70.600 C 191.277 91.568,189.399 95.530,178.628 100.917 C 176.853 101.805,174.950 102.841,174.400 103.218 C 173.850 103.596,172.518 104.204,171.440 104.568 C 170.361 104.933,168.984 105.584,168.378 106.016 C 167.772 106.447,167.146 106.800,166.988 106.800 C 166.141 106.800,159.670 113.129,158.656 114.947 C 158.027 116.076,156.992 117.710,156.356 118.579 C 154.902 120.565,154.911 120.721,156.495 120.875 C 161.955 121.403,162.339 144.462,156.951 148.290 C 153.002 151.096,148.066 151.054,145.367 148.192 L 144.124 146.874 142.870 148.937 C 139.380 154.679,130.144 163.116,123.920 166.249 C 115.918 170.277,114.957 170.722,113.705 170.987 C 112.992 171.138,112.306 171.428,112.181 171.631 C 112.055 171.834,111.546 172.000,111.049 172.000 C 110.552 172.000,108.808 172.367,107.173 172.815 C 105.538 173.263,102.040 173.974,99.400 174.394 C 92.176 175.544,89.488 176.022,89.181 176.212 C 89.028 176.306,87.485 176.558,85.751 176.771 C 82.183 177.210,76.470 178.142,73.200 178.819 C 71.990 179.070,69.470 179.415,67.600 179.586 C 62.911 180.016,56.686 181.022,55.764 181.499 C 55.344 181.717,54.348 182.012,53.550 182.156 C 52.231 182.394,51.479 182.921,48.400 185.768 C 47.850 186.276,46.584 187.238,45.587 187.905 C 43.577 189.250,38.376 194.332,37.097 196.200 C 36.646 196.860,36.067 197.580,35.811 197.800 C 35.555 198.020,34.388 199.640,33.218 201.400 C 32.047 203.160,30.782 204.960,30.407 205.400 C 29.608 206.338,28.168 210.310,27.796 212.600 C 27.653 213.480,27.169 215.342,26.721 216.738 C 24.677 223.104,27.250 237.009,31.399 242.021 C 34.610 245.900,33.637 245.435,41.000 246.611 C 46.769 247.532,57.983 247.112,67.800 245.608 C 69.120 245.406,72.000 245.127,74.200 244.990 C 76.400 244.852,80.149 244.482,82.532 244.167 C 90.688 243.090,96.813 244.778,100.984 249.252 C 103.213 251.642,106.800 256.735,106.800 257.508 C 106.800 257.710,107.478 258.939,108.307 260.238 C 109.136 261.537,110.428 263.860,111.179 265.400 C 113.432 270.022,120.003 280.273,121.779 281.938 C 122.692 282.793,123.880 284.012,124.419 284.647 C 126.072 286.590,131.660 290.896,132.967 291.231 C 140.083 293.059,139.584 293.164,139.329 289.900 C 138.412 278.180,142.182 264.091,148.024 257.400 C 149.295 255.945,154.000 247.043,154.000 246.094 C 154.000 245.853,154.990 243.717,156.200 241.346 C 157.410 238.976,158.400 236.882,158.400 236.693 C 158.400 236.390,159.065 234.854,161.036 230.600 C 162.008 228.502,163.846 219.531,165.185 210.354 C 165.621 207.358,166.141 204.478,166.339 203.954 C 166.537 203.429,166.919 201.650,167.188 200.000 C 167.794 196.288,171.382 190.400,173.038 190.400 C 173.169 190.400,173.760 190.055,174.352 189.634 C 178.283 186.835,184.433 189.462,185.139 194.243 C 185.459 196.406,184.978 200.524,184.381 200.733 C 184.171 200.807,184.000 201.129,184.000 201.450 C 184.000 201.772,183.215 202.882,182.256 203.917 C 181.297 204.953,180.274 206.250,179.983 206.800 C 179.421 207.864,179.376 208.168,178.783 215.000 C 178.096 222.915,177.619 226.931,176.835 231.400 C 176.038 235.943,174.703 242.146,174.295 243.200 C 174.167 243.530,173.844 244.790,173.577 246.000 C 173.311 247.210,172.867 248.650,172.592 249.200 C 172.317 249.750,171.872 251.280,171.604 252.600 C 171.336 253.920,170.880 255.270,170.590 255.600 C 170.300 255.930,169.941 256.685,169.793 257.277 C 169.646 257.870,168.952 258.950,168.253 259.677 C 167.553 260.405,166.102 262.170,165.028 263.600 C 163.955 265.030,162.857 266.383,162.590 266.606 C 161.999 267.100,158.400 273.857,158.400 274.473 C 158.400 274.715,158.043 275.652,157.606 276.556 C 156.431 278.986,154.816 286.816,154.532 291.452 L 154.284 295.511 155.442 295.741 C 160.846 296.814,181.100 297.600,190.083 297.086 C 193.690 296.880,195.846 296.914,196.383 297.186 C 196.832 297.414,197.558 297.780,197.995 298.000 C 199.014 298.513,200.986 298.513,202.005 298.000 C 202.442 297.780,203.168 297.414,203.617 297.186 C 204.154 296.914,206.310 296.880,209.917 297.086 C 218.900 297.600,239.154 296.814,244.558 295.741 L 245.716 295.511 245.468 291.452 C 245.184 286.816,243.569 278.986,242.394 276.556 C 241.957 275.652,241.600 274.715,241.600 274.473 C 241.600 273.857,238.001 267.100,237.410 266.606 C 237.143 266.383,236.045 265.030,234.972 263.600 C 233.898 262.170,232.447 260.405,231.747 259.677 C 231.048 258.950,230.354 257.870,230.207 257.277 C 230.059 256.685,229.700 255.930,229.410 255.600 C 229.120 255.270,228.664 253.920,228.396 252.600 C 228.128 251.280,227.683 249.750,227.408 249.200 C 227.133 248.650,226.689 247.210,226.423 246.000 C 226.156 244.790,225.833 243.530,225.705 243.200 C 225.297 242.146,223.962 235.943,223.165 231.400 C 222.381 226.931,221.904 222.915,221.217 215.000 C 220.624 208.168,220.579 207.864,220.017 206.800 C 219.726 206.250,218.703 204.953,217.744 203.917 C 216.785 202.882,216.000 201.772,216.000 201.450 C 216.000 201.129,215.829 200.807,215.619 200.733 C 215.022 200.524,214.541 196.406,214.861 194.243 C 215.567 189.462,221.717 186.835,225.648 189.634 C 226.240 190.055,226.831 190.400,226.962 190.400 C 228.618 190.400,232.206 196.288,232.812 200.000 C 233.081 201.650,233.463 203.429,233.661 203.954 C 233.859 204.478,234.379 207.358,234.815 210.354 C 236.154 219.531,237.992 228.502,238.964 230.600 C 240.935 234.854,241.600 236.390,241.600 236.693 C 241.600 236.882,242.590 238.976,243.800 241.346 C 245.010 243.717,246.000 245.853,246.000 246.094 C 246.000 247.043,250.705 255.945,251.976 257.400 C 257.818 264.091,261.588 278.180,260.671 289.900 C 260.416 293.164,259.917 293.059,267.033 291.231 C 268.340 290.896,273.928 286.590,275.581 284.647 C 276.120 284.012,277.308 282.793,278.221 281.938 C 279.997 280.273,286.568 270.022,288.821 265.400 C 289.572 263.860,290.864 261.537,291.693 260.238 C 292.522 258.939,293.200 257.710,293.200 257.508 C 293.200 256.735,296.787 251.642,299.016 249.252 C 303.187 244.778,309.312 243.090,317.468 244.167 C 319.851 244.482,323.600 244.852,325.800 244.990 C 328.000 245.127,330.880 245.406,332.200 245.608 C 342.017 247.112,353.231 247.532,359.000 246.611 C 366.363 245.435,365.390 245.900,368.601 242.021 C 372.750 237.009,375.323 223.104,373.279 216.738 C 372.831 215.342,372.347 213.480,372.204 212.600 C 371.832 210.310,370.392 206.338,369.593 205.400 C 369.218 204.960,367.953 203.160,366.782 201.400 C 365.612 199.640,364.445 198.020,364.189 197.800 C 363.933 197.580,363.354 196.860,362.903 196.200 C 361.624 194.332,356.423 189.250,354.413 187.905 C 353.416 187.238,352.150 186.276,351.600 185.768 C 348.521 182.921,347.769 182.394,346.450 182.156 C 345.652 182.012,344.656 181.717,344.236 181.499 C 343.314 181.022,337.089 180.016,332.400 179.586 C 330.530 179.415,328.010 179.070,326.800 178.819 C 323.530 178.142,317.817 177.210,314.249 176.771 C 312.515 176.558,310.972 176.306,310.819 176.212 C 310.512 176.022,307.824 175.544,300.600 174.394 C 297.960 173.974,294.462 173.263,292.827 172.815 C 291.192 172.367,289.448 172.000,288.951 172.000 C 288.454 172.000,287.945 171.834,287.819 171.631 C 287.694 171.428,287.008 171.138,286.295 170.987 C 285.043 170.722,284.082 170.277,276.080 166.249 C 269.856 163.116,260.620 154.679,257.130 148.937 L 255.876 146.874 254.633 148.192 C 250.940 152.108,243.301 150.567,240.974 145.436 C 239.405 141.977,238.676 130.602,239.763 126.522 C 240.707 122.974,242.002 121.020,243.505 120.875 C 245.089 120.721,245.098 120.565,243.644 118.579 C 243.008 117.710,241.973 116.076,241.344 114.947 C 240.330 113.129,233.859 106.800,233.012 106.800 C 232.854 106.800,232.228 106.447,231.622 106.016 C 231.016 105.584,229.639 104.933,228.560 104.568 C 227.482 104.204,226.150 103.596,225.600 103.218 C 225.050 102.841,223.147 101.805,221.372 100.917 C 210.601 95.530,208.730 91.582,207.006 70.600 C 206.662 66.420,206.210 61.740,206.001 60.200 C 205.791 58.660,205.507 56.320,205.369 55.000 C 204.888 50.386,201.181 48.319,197.200 50.446 M160.056 161.427 C 163.896 162.480,165.912 162.957,168.915 163.524 C 169.858 163.702,170.825 163.968,171.063 164.116 C 171.302 164.263,173.276 164.400,175.449 164.420 C 177.622 164.439,180.030 164.608,180.800 164.794 C 181.570 164.980,184.720 165.232,187.800 165.354 C 190.880 165.475,195.740 165.689,198.600 165.830 C 201.460 165.970,208.840 166.089,215.000 166.094 C 227.524 166.104,229.758 165.833,244.000 162.585 C 249.175 161.404,249.439 161.402,250.570 162.533 C 252.548 164.512,251.614 167.240,248.686 168.033 C 247.758 168.284,246.550 168.631,246.000 168.804 C 245.450 168.977,243.650 169.337,242.000 169.605 C 240.350 169.873,237.650 170.419,236.000 170.820 C 230.805 172.081,228.606 172.201,211.600 172.154 C 195.003 172.107,170.862 170.905,168.400 170.002 C 167.850 169.801,166.500 169.519,165.400 169.377 C 164.300 169.235,161.815 168.597,159.877 167.959 C 157.940 167.322,155.907 166.800,155.359 166.800 C 153.955 166.800,152.400 165.118,152.400 163.600 C 152.400 160.489,154.482 159.898,160.056 161.427 " stroke="none" fill="#9d7cb4" fill-rule="evenodd"></path><path id="path1" d="M182.200 0.612 C 106.360 6.692,39.051 58.033,12.280 130.220 C -4.182 174.610,-4.187 225.376,12.266 269.741 C 31.885 322.645,73.113 364.907,125.600 385.918 C 172.746 404.792,227.206 404.793,274.400 385.922 C 350.944 355.314,399.802 282.867,399.787 200.000 C 399.766 81.574,301.020 -8.913,182.200 0.612 M203.207 50.500 C 205.570 51.697,206.403 56.137,207.616 74.000 C 208.834 91.925,210.948 95.282,225.723 102.758 C 234.879 107.391,239.547 110.932,241.745 114.913 C 242.374 116.053,243.409 117.742,244.045 118.665 C 244.680 119.589,245.200 120.463,245.200 120.608 C 245.200 120.753,245.548 121.171,245.974 121.536 C 246.400 121.901,247.227 123.640,247.812 125.400 C 248.397 127.160,249.466 129.770,250.188 131.200 C 250.910 132.630,251.803 134.853,252.173 136.140 C 252.543 137.427,253.480 139.835,254.256 141.492 C 255.031 143.149,255.580 144.832,255.475 145.233 C 255.371 145.634,255.412 146.015,255.567 146.081 C 255.722 146.146,256.514 147.280,257.328 148.600 C 263.186 158.101,277.593 168.518,289.000 171.500 C 297.001 173.592,298.771 174.000,299.848 174.004 C 300.958 174.007,309.491 175.510,313.200 176.355 C 314.190 176.580,316.947 176.971,319.327 177.224 C 321.708 177.476,325.321 178.095,327.357 178.599 C 329.393 179.104,331.496 179.432,332.031 179.330 C 333.219 179.103,342.790 180.623,345.000 181.389 C 345.880 181.695,347.101 182.052,347.714 182.183 C 348.402 182.331,348.972 182.801,349.204 183.411 C 349.411 183.955,349.854 184.400,350.189 184.400 C 350.524 184.400,351.473 184.991,352.299 185.713 C 353.124 186.436,354.520 187.546,355.400 188.180 C 358.112 190.133,363.290 195.650,365.562 199.006 C 366.751 200.763,368.392 203.100,369.209 204.200 C 370.587 206.057,372.400 210.495,372.400 212.013 C 372.400 212.375,372.871 214.168,373.447 215.997 C 375.396 222.189,373.395 236.344,369.963 240.641 C 369.103 241.718,368.019 243.190,367.554 243.910 C 366.076 246.202,357.710 247.869,349.629 247.481 C 343.747 247.198,335.101 246.471,332.000 245.997 C 313.204 243.128,304.120 244.034,299.436 249.244 C 296.313 252.717,295.584 253.878,289.411 265.200 C 284.444 274.308,281.485 278.782,277.803 282.753 C 271.301 289.763,267.497 292.116,261.200 293.026 C 260.210 293.169,257.960 293.707,256.200 294.221 C 251.309 295.650,247.312 296.066,225.600 297.406 C 224.610 297.467,220.920 297.503,217.400 297.487 C 210.644 297.455,204.403 297.488,202.900 297.564 C 202.405 297.589,202.000 297.787,202.000 298.004 C 202.000 298.222,201.100 298.400,200.000 298.400 C 198.900 298.400,198.000 298.222,198.000 298.004 C 198.000 297.787,197.595 297.589,197.100 297.564 C 195.597 297.488,189.356 297.455,182.600 297.487 C 179.080 297.503,175.390 297.467,174.400 297.406 C 152.688 296.066,148.691 295.650,143.800 294.221 C 142.040 293.707,139.790 293.169,138.800 293.026 C 132.503 292.116,128.699 289.763,122.197 282.753 C 118.515 278.782,115.556 274.308,110.589 265.200 C 104.416 253.878,103.687 252.717,100.564 249.244 C 98.050 246.448,94.928 245.021,90.000 244.416 C 87.456 244.103,74.138 245.061,68.000 245.997 C 66.570 246.216,62.970 246.593,60.000 246.836 C 43.883 248.154,34.543 247.162,32.446 243.910 C 31.981 243.190,30.897 241.718,30.037 240.641 C 26.605 236.344,24.604 222.189,26.553 215.997 C 27.129 214.168,27.600 212.375,27.600 212.013 C 27.600 210.495,29.413 206.057,30.791 204.200 C 31.608 203.100,33.249 200.763,34.438 199.006 C 36.710 195.650,41.888 190.133,44.600 188.180 C 45.480 187.546,46.876 186.436,47.701 185.713 C 48.527 184.991,49.476 184.400,49.811 184.400 C 50.146 184.400,50.589 183.955,50.796 183.411 C 51.028 182.801,51.598 182.331,52.286 182.183 C 52.899 182.052,54.120 181.695,55.000 181.389 C 57.210 180.623,66.781 179.103,67.969 179.330 C 68.504 179.432,70.607 179.104,72.643 178.599 C 74.679 178.095,78.292 177.476,80.673 177.224 C 83.053 176.971,85.810 176.580,86.800 176.355 C 90.509 175.510,99.042 174.007,100.152 174.004 C 101.229 174.000,102.999 173.592,111.000 171.500 C 122.407 168.518,136.814 158.101,142.672 148.600 C 143.486 147.280,144.278 146.146,144.433 146.081 C 144.588 146.015,144.629 145.634,144.525 145.233 C 144.420 144.832,144.969 143.149,145.744 141.492 C 146.520 139.835,147.457 137.427,147.827 136.140 C 148.197 134.853,149.090 132.630,149.812 131.200 C 150.534 129.770,151.603 127.160,152.188 125.400 C 152.773 123.640,153.600 121.901,154.026 121.536 C 154.452 121.171,154.800 120.753,154.800 120.608 C 154.800 120.463,155.320 119.589,155.955 118.665 C 156.591 117.742,157.626 116.053,158.255 114.913 C 160.453 110.932,165.121 107.391,174.277 102.758 C 189.052 95.282,191.166 91.925,192.384 74.000 C 193.850 52.417,194.729 49.600,200.000 49.600 C 200.787 49.600,202.230 50.005,203.207 50.500 M150.500 150.276 C 150.885 150.376,151.515 150.376,151.900 150.276 C 152.285 150.175,151.970 150.093,151.200 150.093 C 150.430 150.093,150.115 150.175,150.500 150.276 M248.100 150.276 C 248.485 150.376,249.115 150.376,249.500 150.276 C 249.885 150.175,249.570 150.093,248.800 150.093 C 248.030 150.093,247.715 150.175,248.100 150.276 " stroke="none" fill="#1c242c" fill-rule="evenodd"></path><path id="path2" d="M193.293 65.200 C 193.293 65.970,193.375 66.285,193.476 65.900 C 193.576 65.515,193.576 64.885,193.476 64.500 C 193.375 64.115,193.293 64.430,193.293 65.200 M206.493 65.200 C 206.493 65.970,206.575 66.285,206.676 65.900 C 206.776 65.515,206.776 64.885,206.676 64.500 C 206.575 64.115,206.493 64.430,206.493 65.200 M192.893 69.600 C 192.893 70.370,192.975 70.685,193.076 70.300 C 193.176 69.915,193.176 69.285,193.076 68.900 C 192.975 68.515,192.893 68.830,192.893 69.600 M206.893 69.600 C 206.893 70.370,206.975 70.685,207.076 70.300 C 207.176 69.915,207.176 69.285,207.076 68.900 C 206.975 68.515,206.893 68.830,206.893 69.600 M192.493 74.000 C 192.493 74.770,192.575 75.085,192.676 74.700 C 192.776 74.315,192.776 73.685,192.676 73.300 C 192.575 72.915,192.493 73.230,192.493 74.000 M207.293 74.000 C 207.293 74.770,207.375 75.085,207.476 74.700 C 207.576 74.315,207.576 73.685,207.476 73.300 C 207.375 72.915,207.293 73.230,207.293 74.000 M191.293 84.000 C 191.293 84.770,191.375 85.085,191.476 84.700 C 191.576 84.315,191.576 83.685,191.476 83.300 C 191.375 82.915,191.293 83.230,191.293 84.000 M208.493 84.000 C 208.493 84.770,208.575 85.085,208.676 84.700 C 208.776 84.315,208.776 83.685,208.676 83.300 C 208.575 82.915,208.493 83.230,208.493 84.000 M160.493 131.600 C 160.493 132.370,160.575 132.685,160.676 132.300 C 160.776 131.915,160.776 131.285,160.676 130.900 C 160.575 130.515,160.493 130.830,160.493 131.600 M239.293 131.600 C 239.293 132.370,239.375 132.685,239.476 132.300 C 239.576 131.915,239.576 131.285,239.476 130.900 C 239.375 130.515,239.293 130.830,239.293 131.600 M39.578 193.100 L 38.200 194.600 39.700 193.222 C 40.525 192.463,41.200 191.788,41.200 191.722 C 41.200 191.416,40.862 191.704,39.578 193.100 M360.000 193.000 C 360.746 193.770,361.447 194.400,361.557 194.400 C 361.667 194.400,361.146 193.770,360.400 193.000 C 359.654 192.230,358.953 191.600,358.843 191.600 C 358.733 191.600,359.254 192.230,360.000 193.000 M25.728 221.600 C 25.728 223.030,25.801 223.615,25.889 222.900 C 25.978 222.185,25.978 221.015,25.889 220.300 C 25.801 219.585,25.728 220.170,25.728 221.600 M374.128 221.600 C 374.128 223.030,374.201 223.615,374.289 222.900 C 374.378 222.185,374.378 221.015,374.289 220.300 C 374.201 219.585,374.128 220.170,374.128 221.600 " stroke="none" fill="#726294" fill-rule="evenodd"></path><path id="path3" d="M154.424 121.306 C 153.686 121.680,153.126 122.724,152.121 125.600 C 151.391 127.690,150.276 130.390,149.642 131.600 C 149.008 132.810,148.189 134.853,147.822 136.140 C 147.455 137.427,146.535 139.803,145.777 141.421 C 144.189 144.814,144.205 144.698,145.018 146.728 C 146.898 151.428,156.125 150.810,158.381 145.833 C 160.605 140.927,161.039 128.362,159.123 124.339 C 157.604 121.149,156.343 120.334,154.424 121.306 M242.877 121.425 C 239.205 124.022,238.442 138.826,241.619 145.833 C 243.875 150.810,253.102 151.428,254.982 146.728 C 255.795 144.698,255.811 144.814,254.223 141.421 C 253.465 139.803,252.543 137.427,252.173 136.140 C 251.803 134.853,250.910 132.630,250.188 131.200 C 249.466 129.770,248.393 127.160,247.803 125.400 C 246.358 121.086,244.956 119.955,242.877 121.425 M153.834 161.730 C 151.911 163.652,152.756 165.721,155.752 166.429 C 156.878 166.696,159.150 167.361,160.800 167.907 C 162.450 168.454,164.250 168.946,164.800 169.002 C 165.350 169.057,167.060 169.369,168.600 169.695 C 170.140 170.021,172.570 170.339,174.000 170.401 C 176.987 170.532,178.821 170.653,182.200 170.944 C 194.544 172.004,220.881 172.550,227.000 171.873 C 228.760 171.679,231.010 171.478,232.000 171.427 C 232.990 171.377,234.160 171.154,234.600 170.931 C 235.040 170.709,236.750 170.300,238.400 170.023 C 240.050 169.745,241.850 169.376,242.400 169.202 C 242.950 169.028,244.480 168.652,245.800 168.367 C 250.521 167.347,251.614 166.389,250.973 163.834 C 250.487 161.898,249.015 161.785,243.000 163.221 C 242.120 163.431,240.410 163.781,239.200 163.997 C 237.990 164.214,236.370 164.580,235.600 164.811 C 228.863 166.830,173.277 166.225,169.832 164.096 C 169.601 163.953,168.059 163.618,166.406 163.351 C 164.753 163.084,162.320 162.481,161.000 162.011 C 156.982 160.580,155.059 160.504,153.834 161.730 " stroke="none" fill="#040404" fill-rule="evenodd"></path><path id="path4" d="M70.500 245.476 C 70.885 245.576,71.515 245.576,71.900 245.476 C 72.285 245.375,71.970 245.293,71.200 245.293 C 70.430 245.293,70.115 245.375,70.500 245.476 M328.100 245.476 C 328.485 245.576,329.115 245.576,329.500 245.476 C 329.885 245.375,329.570 245.293,328.800 245.293 C 328.030 245.293,327.715 245.375,328.100 245.476 M46.705 247.483 C 47.202 247.579,47.922 247.575,48.305 247.475 C 48.687 247.375,48.280 247.296,47.400 247.301 C 46.520 247.305,46.207 247.387,46.705 247.483 M351.905 247.483 C 352.402 247.579,353.122 247.575,353.505 247.475 C 353.887 247.375,353.480 247.296,352.600 247.301 C 351.720 247.305,351.407 247.387,351.905 247.483 M163.100 296.682 C 163.595 296.778,164.405 296.778,164.900 296.682 C 165.395 296.587,164.990 296.509,164.000 296.509 C 163.010 296.509,162.605 296.587,163.100 296.682 M235.100 296.682 C 235.595 296.778,236.405 296.778,236.900 296.682 C 237.395 296.587,236.990 296.509,236.000 296.509 C 235.010 296.509,234.605 296.587,235.100 296.682 " stroke="none" fill="#564a6e" fill-rule="evenodd"></path><path id="path5" d="" stroke="none" fill="#4a4465" fill-rule="evenodd"></path><path id="path6" d="" stroke="none" fill="#403a58" fill-rule="evenodd"></path><path id="path7" d="M176.200 188.693 C 175.760 188.803,174.922 189.232,174.338 189.647 C 173.754 190.061,173.169 190.400,173.038 190.400 C 171.382 190.400,167.794 196.288,167.188 200.000 C 166.919 201.650,166.537 203.429,166.339 203.954 C 166.141 204.478,165.621 207.358,165.185 210.354 C 163.846 219.531,162.008 228.502,161.036 230.600 C 159.065 234.854,158.400 236.390,158.400 236.693 C 158.400 236.882,157.410 238.976,156.200 241.346 C 154.990 243.717,154.000 245.853,154.000 246.094 C 154.000 247.043,149.295 255.945,148.024 257.400 C 143.278 262.836,138.917 276.441,139.113 285.200 C 139.294 293.252,139.286 293.200,140.389 293.205 C 140.945 293.208,142.773 293.649,144.452 294.185 C 146.130 294.721,148.470 295.265,149.652 295.395 C 150.833 295.524,152.430 295.707,153.200 295.800 L 154.600 295.971 154.649 291.885 C 154.703 287.366,156.358 278.853,157.659 276.406 C 158.067 275.639,158.400 274.792,158.400 274.523 C 158.400 273.871,161.971 267.123,162.590 266.606 C 162.857 266.383,163.955 265.030,165.028 263.600 C 166.102 262.170,167.553 260.405,168.253 259.677 C 168.952 258.950,169.646 257.870,169.793 257.277 C 169.941 256.685,170.300 255.930,170.590 255.600 C 170.880 255.270,171.336 253.920,171.604 252.600 C 171.872 251.280,172.317 249.750,172.592 249.200 C 172.867 248.650,173.311 247.210,173.577 246.000 C 173.844 244.790,174.167 243.530,174.295 243.200 C 174.703 242.146,176.038 235.943,176.835 231.400 C 177.619 226.931,178.096 222.915,178.783 215.000 C 179.376 208.168,179.421 207.864,179.983 206.800 C 180.274 206.250,181.297 204.953,182.256 203.917 C 183.215 202.882,184.000 201.772,184.000 201.450 C 184.000 201.129,184.171 200.807,184.381 200.733 C 184.967 200.528,185.462 196.422,185.152 194.331 C 184.558 190.317,180.335 187.658,176.200 188.693 M218.934 189.018 C 216.796 190.114,215.157 192.246,214.848 194.331 C 214.538 196.422,215.033 200.528,215.619 200.733 C 215.829 200.807,216.000 201.129,216.000 201.450 C 216.000 201.772,216.785 202.882,217.744 203.917 C 218.703 204.953,219.726 206.250,220.017 206.800 C 220.579 207.864,220.624 208.168,221.217 215.000 C 221.904 222.915,222.381 226.931,223.165 231.400 C 223.962 235.943,225.297 242.146,225.705 243.200 C 225.833 243.530,226.156 244.790,226.423 246.000 C 226.689 247.210,227.133 248.650,227.408 249.200 C 227.683 249.750,228.128 251.280,228.396 252.600 C 228.664 253.920,229.120 255.270,229.410 255.600 C 229.700 255.930,230.059 256.685,230.207 257.277 C 230.354 257.870,231.048 258.950,231.747 259.677 C 232.447 260.405,233.898 262.170,234.972 263.600 C 236.045 265.030,237.143 266.383,237.410 266.606 C 238.029 267.123,241.600 273.871,241.600 274.523 C 241.600 274.792,241.933 275.639,242.341 276.406 C 243.642 278.853,245.297 287.366,245.351 291.885 L 245.400 295.971 246.800 295.800 C 247.570 295.707,249.167 295.524,250.348 295.395 C 251.530 295.265,253.870 294.721,255.548 294.185 C 257.227 293.649,259.055 293.208,259.611 293.205 C 260.714 293.200,260.706 293.252,260.887 285.200 C 261.083 276.441,256.722 262.836,251.976 257.400 C 250.705 255.945,246.000 247.043,246.000 246.094 C 246.000 245.853,245.010 243.717,243.800 241.346 C 242.590 238.976,241.600 236.882,241.600 236.693 C 241.600 236.390,240.935 234.854,238.964 230.600 C 237.992 228.502,236.154 219.531,234.815 210.354 C 234.379 207.358,233.859 204.478,233.661 203.954 C 233.463 203.429,233.081 201.650,232.812 200.000 C 232.206 196.288,228.618 190.400,226.962 190.400 C 226.831 190.400,226.199 190.027,225.559 189.571 C 223.976 188.444,220.602 188.162,218.934 189.018 " stroke="none" fill="#94594e" fill-rule="evenodd"></path><path id="path8" d="M174.500 170.676 C 174.885 170.776,175.515 170.776,175.900 170.676 C 176.285 170.575,175.970 170.493,175.200 170.493 C 174.430 170.493,174.115 170.575,174.500 170.676 M196.105 171.887 C 196.714 171.979,197.614 171.977,198.105 171.882 C 198.597 171.787,198.100 171.711,197.000 171.714 C 195.900 171.717,195.497 171.795,196.105 171.887 " stroke="none" fill="#3c344a" fill-rule="evenodd"></path></g></svg>