<?xml version="1.0" encoding="UTF-8" standalone="no"?>
<!DOCTYPE svg PUBLIC "-//W3C//DTD SVG 1.1//EN" "http://www.w3.org/Graphics/SVG/1.1/DTD/svg11.dtd">
<svg width="100%" height="100%" viewBox="0 0 2000 2000" version="1.1" xmlns="http://www.w3.org/2000/svg" xmlns:xlink="http://www.w3.org/1999/xlink" xml:space="preserve" xmlns:serif="http://www.serif.com/" style="fill-rule:evenodd;clip-rule:evenodd;stroke-linecap:round;stroke-linejoin:round;stroke-miterlimit:1.5;">
    <g>
        <g transform="matrix(0.98491,0.17307,-0.17307,0.98491,107.034,-254.402)">
            <circle cx="1145.86" cy="1007.56" r="674.27" style="fill:rgb(222,110,123);stroke:rgb(222,110,123);stroke-width:12.5px;"/>
        </g>
        <path d="M388.293,980.637L705.403,905.929L835.442,769.556C835.442,769.556 947.676,801.378 989.969,787.745C1125.05,744.204 1460.82,439.34 1460.82,439.34L1540.67,597.707L1155.73,817.627L1149.61,955.524L1225.24,1018.73L1125.05,1252.12L1249.51,1212.89L1271.82,1325.56L1094.37,1325.56L858.923,1579.54C591.997,1495.88 406.271,1255.09 388.293,980.637Z" style="fill:rgb(105,85,61);stroke:rgb(222,110,123);stroke-width:12.5px;"/>
        <g>
            <g transform="matrix(1.29764,0.228024,-0.228024,1.29764,-375.932,-532.894)">
                <path d="M1339.06,937.961L1335.93,912.264L1322.39,808.376" style="fill:none;stroke:rgb(222,110,123);stroke-width:9.49px;stroke-linecap:butt;"/>
            </g>
            <g transform="matrix(1.29764,0.228024,-0.228024,1.29764,-375.932,-532.894)">
                <path d="M891.786,1062.48C891.786,1062.48 1028.01,1096.46 1078.53,1080.79C1165.29,1053.88 1331.9,973.4 1331.9,973.4" style="fill:none;stroke:rgb(222,110,123);stroke-width:9.49px;stroke-linecap:butt;"/>
            </g>
            <path d="M406.234,1096.74C424.378,1074.62 444.052,1054.27 465.294,1036.79C561.389,957.7 675.417,982.946 900.178,921.342C1063.6,876.549 1142.45,826.512 1154.18,818.68L1155.73,817.627C1155.73,817.627 1155.22,817.989 1154.18,818.68" style="fill:none;stroke:rgb(222,110,123);stroke-width:12.5px;"/>
        </g>
        <g transform="matrix(1.86729,-0.752066,0.752066,1.86729,-1947.51,46.794)">
            <path d="M1142.14,882.834C1150.14,882.834 1161.25,906.32 1161.25,931.402C1161.25,967.906 1150.14,979.97 1142.14,979.97C1134.15,979.97 1123.9,965.089 1123.9,931.402C1123.9,905.173 1134.15,882.834 1142.14,882.834Z" style="fill:rgb(222,110,123);"/>
        </g>
    </g>
    <g>
        <g transform="matrix(0.98491,0.17307,-0.17307,0.98491,107.034,-254.402)">
            <circle cx="1145.86" cy="1007.56" r="674.27" style="fill:rgb(222,110,123);stroke:rgb(222,110,123);stroke-width:12.5px;"/>
        </g>
        <path d="M388.293,980.637L705.403,905.929L835.442,769.556C835.442,769.556 947.676,801.378 989.969,787.745C1125.05,744.204 1460.82,439.34 1460.82,439.34L1540.67,597.707L1155.73,817.627L1149.61,955.524L1225.24,1018.73L1125.05,1252.12L1249.51,1212.89L1271.82,1325.56L1094.37,1325.56L858.923,1579.54C591.997,1495.88 406.271,1255.09 388.293,980.637Z" style="fill:rgb(105,85,61);"/>
        <g>
            <path d="M386.86,974.553C383.888,975.253 381.857,977.998 382.057,981.045C400.201,1258.05 587.651,1501.07 857.054,1585.51C859.355,1586.23 861.867,1585.56 863.507,1583.79L1097.1,1331.81C1097.1,1331.81 1271.82,1331.81 1271.82,1331.81C1273.69,1331.81 1275.47,1330.98 1276.65,1329.53C1277.84,1328.09 1278.32,1326.18 1277.95,1324.35L1255.64,1211.68C1255.3,1209.93 1254.23,1208.42 1252.7,1207.51C1251.17,1206.61 1249.33,1206.39 1247.63,1206.93L1136.17,1242.06C1136.17,1242.06 1230.99,1021.19 1230.99,1021.19C1232.08,1018.65 1231.37,1015.7 1229.25,1013.93L1155.99,952.711C1155.99,952.711 1161.82,821.345 1161.82,821.345C1161.82,821.345 1543.77,603.134 1543.77,603.134C1546.66,601.484 1547.75,597.862 1546.25,594.893L1466.4,436.526C1465.52,434.783 1463.87,433.551 1461.95,433.195C1460.04,432.839 1458.06,433.401 1456.61,434.713C1456.61,434.713 1292.38,583.837 1147.59,688.218C1086.07,732.566 1028.15,768.87 988.051,781.797C975.982,785.687 957.919,785.516 938.553,783.608C891.555,778.979 837.147,763.543 837.147,763.543C834.916,762.911 832.519,763.565 830.919,765.243C830.919,765.243 715.643,886.134 702.162,900.272C702.162,900.272 386.86,974.553 386.86,974.553ZM394.897,985.502L706.837,912.013C708.016,911.735 709.09,911.12 709.927,910.242C709.927,910.242 819.121,795.729 837.388,776.572C850.506,780.114 896.637,792.04 937.327,796.048C958.678,798.152 978.58,797.983 991.886,793.694C1032.83,780.496 1092.09,743.637 1154.9,698.358C1283.71,605.495 1427.87,477.349 1458.92,449.463C1458.92,449.463 1518.93,568.467 1532.42,595.223C1532.42,595.223 1152.63,812.2 1152.63,812.2C1150.77,813.264 1149.58,815.208 1149.49,817.35L1143.37,955.247C1143.28,957.194 1144.11,959.07 1145.6,960.32L1217.66,1020.54C1204.05,1052.26 1119.31,1249.65 1119.31,1249.65C1118.34,1251.9 1118.78,1254.5 1120.42,1256.31C1122.06,1258.12 1124.6,1258.81 1126.93,1258.08L1244.74,1220.95C1244.74,1220.95 1264.21,1319.31 1264.21,1319.31C1264.21,1319.31 1094.37,1319.31 1094.37,1319.31C1092.63,1319.31 1090.97,1320.04 1089.79,1321.32L857.033,1572.39C596.306,1488.98 414.63,1253.93 394.897,985.502L394.897,985.502Z" style="fill:rgb(222,110,123);"/>
            <g transform="matrix(1.29764,0.228024,-0.228024,1.29764,-375.932,-532.894)">
                <path d="M1343.77,937.388L1340.64,911.691C1340.64,911.677 1340.64,911.664 1340.63,911.651L1327.09,807.763L1317.69,808.989L1331.23,912.857C1331.23,912.857 1334.35,938.535 1334.35,938.535L1343.77,937.388Z" style="fill:rgb(222,110,123);"/>
            </g>
            <g transform="matrix(1.29764,0.228024,-0.228024,1.29764,-375.932,-532.894)">
                <path d="M890.638,1067.09C890.638,1067.09 957.801,1083.83 1015.53,1088.47C1040.83,1090.51 1064.34,1090.15 1079.93,1085.32C1166.92,1058.34 1333.96,977.671 1333.96,977.671L1329.84,969.128C1329.84,969.128 1163.66,1049.42 1077.12,1076.26C1062.4,1080.82 1040.18,1080.94 1016.29,1079.02C959.27,1074.43 892.934,1057.88 892.934,1057.88L890.638,1067.09Z" style="fill:rgb(222,110,123);"/>
            </g>
            <path d="M1157.65,823.879L1157.65,823.876C1158.78,823.124 1159.34,822.729 1159.34,822.729C1162.14,820.748 1162.82,816.881 1160.86,814.063C1158.91,811.246 1155.05,810.53 1152.21,812.46L1150.69,813.497C1138.97,821.318 1060.66,870.875 898.526,915.314C786.417,946.042 701.921,955.093 633.473,966.341C563.63,977.817 510.23,991.708 461.322,1031.96C439.773,1049.69 419.808,1070.34 401.402,1092.78C399.214,1095.44 399.603,1099.38 402.27,1101.57C404.937,1103.76 408.879,1103.37 411.066,1100.7C428.947,1078.91 448.331,1058.84 469.265,1041.61C516.452,1002.78 568.114,989.748 635.5,978.675C704.28,967.373 789.178,958.246 901.83,927.369C1066.45,882.25 1145.84,831.767 1157.65,823.879Z" style="fill:rgb(222,110,123);"/>
        </g>
        <g transform="matrix(1.86729,-0.752066,0.752066,1.86729,-1947.51,46.794)">
            <path d="M1142.14,882.834C1150.14,882.834 1161.25,906.32 1161.25,931.402C1161.25,967.906 1150.14,979.97 1142.14,979.97C1134.15,979.97 1123.9,965.089 1123.9,931.402C1123.9,905.173 1134.15,882.834 1142.14,882.834Z" style="fill:rgb(222,110,123);"/>
        </g>
    </g>
</svg>
