<?xml version="1.0" encoding="UTF-8" standalone="no"?>
<!DOCTYPE svg PUBLIC "-//W3C//DTD SVG 1.1//EN" "http://www.w3.org/Graphics/SVG/1.1/DTD/svg11.dtd">
<svg width="100%" height="100%" viewBox="0 0 2000 2000" version="1.1" xmlns="http://www.w3.org/2000/svg" xmlns:xlink="http://www.w3.org/1999/xlink" xml:space="preserve" xmlns:serif="http://www.serif.com/" style="fill-rule:evenodd;clip-rule:evenodd;stroke-linecap:round;stroke-linejoin:round;stroke-miterlimit:1.5;">
    <g>
        <g transform="matrix(0.98491,0.17307,-0.17307,0.98491,107.034,-254.402)">
            <circle cx="1145.86" cy="1007.56" r="674.27" style="fill:rgb(222,110,123);stroke:rgb(222,110,123);stroke-width:12.5px;"/>
        </g>
        <path d="M388.293,980.637L705.403,905.929L835.442,769.556C835.442,769.556 947.676,801.378 989.969,787.745C1125.05,744.204 1460.82,439.34 1460.82,439.34L1540.67,597.707L1155.73,817.627L1149.61,955.524L1225.24,1018.73L1125.05,1252.12L1249.51,1212.89L1271.82,1325.56L1094.37,1325.56L858.923,1579.54C591.997,1495.88 406.271,1255.09 388.293,980.637Z" style="fill:rgb(105,85,61);stroke:rgb(222,110,123);stroke-width:12.5px;"/>
        <g>
            <g transform="matrix(1.29764,0.228024,-0.228024,1.29764,-375.932,-532.894)">
                <path d="M1339.06,937.961L1335.93,912.264L1322.39,808.376" style="fill:none;stroke:rgb(222,110,123);stroke-width:9.49px;stroke-linecap:butt;"/>
            </g>
            <g transform="matrix(1.29764,0.228024,-0.228024,1.29764,-375.932,-532.894)">
                <path d="M891.786,1062.48C891.786,1062.48 1028.01,1096.46 1078.53,1080.79C1165.29,1053.88 1331.9,973.4 1331.9,973.4" style="fill:none;stroke:rgb(222,110,123);stroke-width:9.49px;stroke-linecap:butt;"/>
            </g>
            <path d="M406.234,1096.74C424.378,1074.62 444.052,1054.27 465.294,1036.79C561.389,957.7 675.417,982.946 900.178,921.342C1063.6,876.549 1142.45,826.512 1154.18,818.68L1155.73,817.627C1155.73,817.627 1155.22,817.989 1154.18,818.68" style="fill:none;stroke:rgb(222,110,123);stroke-width:12.5px;"/>
        </g>
        <g transform="matrix(1.86729,-0.752066,0.752066,1.86729,-1947.51,46.794)">
            <path d="M1142.14,882.834C1150.14,882.834 1161.25,906.32 1161.25,931.402C1161.25,967.906 1150.14,979.97 1142.14,979.97C1134.15,979.97 1123.9,965.089 1123.9,931.402C1123.9,905.173 1134.15,882.834 1142.14,882.834Z" style="fill:rgb(222,110,123);"/>
        </g>
    </g>
</svg>
